<?xml version="1.0" encoding="iso-8859-1"?>
<!-- Generator: Adobe Illustrator 19.0.0, SVG Export Plug-In . SVG Version: 6.00 Build 0)  -->
<svg version="1.1" id="Layer_1" xmlns="http://www.w3.org/2000/svg" xmlns:xlink="http://www.w3.org/1999/xlink" x="0px" y="0px"
	 viewBox="0 0 500 500" style="enable-background:new 0 0 500 500;" xml:space="preserve">
<g>
	<g>
		<path d="M498.008,133.479L333.984,38.211c-1.244-0.728-2.772-0.728-4.016,0l-81.976,47.608c-1.908,1.108-2.56,3.552-1.448,5.464
			c1.108,1.916,3.552,2.552,5.464,1.448l79.968-46.44l156.08,90.656l-74.024,43.276L269.748,96.147
			c-1.912-1.104-4.36-0.468-5.472,1.44c-1.112,1.908-0.468,4.36,1.44,5.472l146.304,85.248c0.624,0.364,1.32,0.544,2.016,0.544
			c0.7,0,1.392-0.184,2.02-0.544l81.964-47.92c1.228-0.716,1.984-2.036,1.98-3.456C499.996,135.507,499.24,134.195,498.008,133.479z
			"/>
	</g>
</g>
<g>
	<g>
		<path d="M252.008,85.815l-81.976-47.608c-1.244-0.728-2.772-0.728-4.016,0L1.992,133.475c-1.232,0.712-1.988,2.028-1.992,3.452
			c-0.004,1.42,0.752,2.736,1.98,3.456l81.96,47.92c0.636,0.372,1.328,0.548,2.016,0.548c1.376,0,2.716-0.708,3.456-1.98
			c1.116-1.904,0.476-4.36-1.432-5.472l-76.036-44.46l156.08-90.656l74.024,42.996l-138.196,80.528
			c-1.904,1.112-2.548,3.56-1.44,5.472c1.116,1.908,3.556,2.548,5.472,1.44l144.132-83.996c1.232-0.716,1.984-2.036,1.984-3.46
			C254,87.843,253.244,86.527,252.008,85.815z"/>
	</g>
</g>
<g>
	<g>
		<path d="M250,277.191c-2.212,0-4,1.788-4,4v170.212L90.252,361.275v-80.084c0-2.212-1.788-4-4-4c-2.212,0-4,1.788-4,4v82.392
			c0,1.424,0.76,2.744,1.996,3.46l163.748,94.756c0.62,0.36,1.312,0.54,2.004,0.54s1.38-0.18,2-0.536c1.24-0.712,2-2.036,2-3.464
			V281.191C254,278.979,252.212,277.191,250,277.191z"/>
	</g>
</g>
<g>
	<g>
		<path d="M413.752,277.191c-2.212,0-4,1.788-4,4v79.588L254,451.387V281.191c0-2.212-1.788-4-4-4c-2.212,0-4,1.788-4,4v177.148
			c0,1.428,0.764,2.752,2.004,3.468c0.62,0.356,1.308,0.532,1.996,0.532c0.696,0,1.392-0.18,2.012-0.544l163.752-95.26
			c1.232-0.712,1.988-2.032,1.988-3.456v-81.888C417.752,278.979,415.964,277.191,413.752,277.191z"/>
	</g>
</g>
<g>
	<g>
		<path d="M253.452,278.103c-1.108-1.904-3.556-2.548-5.472-1.432l-79.952,46.744L11.952,232.467l74.024-42.992l140.168,81.412
			c1.908,1.112,4.356,0.464,5.464-1.448c1.116-1.908,0.464-4.356-1.448-5.464l-142.176-82.58c-1.244-0.728-2.772-0.728-4.016,0
			L1.992,229.007C0.756,229.719,0,231.039,0,232.459c0,1.428,0.752,2.744,1.984,3.46l164.032,95.588
			c0.624,0.364,1.32,0.544,2.016,0.544c0.7,0,1.392-0.184,2.02-0.556l81.968-47.92C253.924,282.463,254.564,280.011,253.452,278.103
			z"/>
	</g>
</g>
<g>
	<g>
		<path d="M498.008,229.015l-81.976-47.612c-1.908-1.108-4.356-0.464-5.464,1.448c-1.116,1.908-0.464,4.356,1.448,5.464
			l76.032,44.16l-156.076,90.948l-79.952-46.744c-1.912-1.12-4.364-0.48-5.472,1.432c-1.116,1.904-0.476,4.36,1.432,5.472
			l81.968,47.92c0.624,0.364,1.32,0.548,2.02,0.548c0.696,0,1.392-0.18,2.016-0.544l164.032-95.58
			c1.232-0.716,1.984-2.036,1.984-3.46C500,231.047,499.244,229.731,498.008,229.015z"/>
	</g>
</g>
<g>
	<g>
		<path d="M398.968,193.591c-1.112-1.916-3.568-2.556-5.464-1.448l-145.512,84.528c-1.908,1.108-2.56,3.552-1.448,5.464
			c0.74,1.28,2.08,1.992,3.46,1.992c0.684,0,1.376-0.176,2.004-0.544l145.512-84.528
			C399.428,197.947,400.08,195.503,398.968,193.591z"/>
	</g>
</g>
<g>
	<g>
		<path d="M250,86.047c-2.212,0-4,1.788-4,4v171.648c0,2.212,1.788,4,4,4c2.212,0,4-1.788,4-4V90.047
			C254,87.835,252.212,86.047,250,86.047z"/>
	</g>
</g>
<g>
</g>
<g>
</g>
<g>
</g>
<g>
</g>
<g>
</g>
<g>
</g>
<g>
</g>
<g>
</g>
<g>
</g>
<g>
</g>
<g>
</g>
<g>
</g>
<g>
</g>
<g>
</g>
<g>
</g>
</svg>
